Coordinates
version=1
nRows=8
nColumns=28
inDegrees=yes

Units are S.I. units (second, meters, Newtons, ...)
If the header above contains a line with 'inDegrees', this indicates whether rotational values are in degrees (yes) or radians (no).

endheader
time	pelvis_tilt	pelvis_list	pelvis_rotation	pelvis_tx	pelvis_ty	pelvis_tz	hip_flexion_r	hip_adduction_r	hip_rotation_r	knee_angle_r	knee_rotation_r	knee_adduction_r	ankle_angle_r	subtalar_angle_r	mtp_angle_r	hip_flexion_l	hip_adduction_l	hip_rotation_l	knee_angle_l	knee_rotation_l	knee_adduction_l	ankle_angle_l	subtalar_angle_l	mtp_angle_l	lumbar_extension	lumbar_bending	lumbar_rotation
      0.00000000	     -6.30756622	      8.24018772	    -89.02560242	     -0.22272750	      0.95642002	     -0.80245357	      9.42101198	      9.00899434	     23.31028987	    -16.12105054	    -10.81368843	      5.94314312	     12.95269568	     -7.08618935	      1.92886228	     40.83121559	     -7.90562079	      9.70438614	    -28.82842302	      6.00363164	     -2.95499911	     15.67074921	      3.67754109	      1.00694420	      0.00000000	      0.00000000	      0.00000000
      0.01000000	     -6.17767430	      8.35930715	    -88.91965668	     -0.22106627	      0.95588598	     -0.79150781	      8.69401548	      8.45305467	     22.70973513	    -15.85397469	    -11.07198405	      6.19995763	     13.90965918	     -5.42869962	      3.30877758	     40.17033316	     -7.58193605	     10.44252010	    -24.50834034	      5.94069599	     -3.19459668	     15.48601888	      3.31532441	      1.59189464	      0.00000000	      0.00000000	      0.00000000
      0.02000000	     -5.69423924	      8.20688028	    -89.45448971	     -0.22050336	      0.95609854	     -0.77977314	      7.52016256	      7.63562926	     22.69561820	    -15.40490121	    -10.90933939	      6.48461750	     14.44434361	     -5.17735837	      6.75367860	     38.93950829	     -7.00826998	      8.52408444	    -20.22282990	      4.38921352	     -1.72539738	     15.75173772	      4.61413347	      3.06020154	      0.00000000	      0.00000000	      0.00000000
      0.03000000	     -5.46127594	      8.84187203	    -89.81495321	     -0.21943552	      0.95443702	     -0.76841244	      7.49895033	      7.05286552	     22.33577323	    -15.51276356	    -10.54442059	      6.88339512	     15.17505334	     -4.49340066	      6.98927564	     38.54226075	     -6.71928118	      8.66868730	    -15.97209807	      3.87818216	     -1.40131752	     15.91580684	      5.22615254	      3.13292816	      0.00000000	      0.00000000	      0.00000000
      0.04000000	     -5.03530191	      8.77876296	    -90.19539849	     -0.21823815	      0.95394755	     -0.75677188	      6.57828315	      6.18970778	     21.52009840	    -15.25783808	     -9.74538536	      7.13669506	     15.81760540	     -3.80214055	      7.36889196	     37.16363837	     -6.38993905	      9.32955101	    -11.60092484	      3.73347276	     -1.38985911	     15.78375463	      5.36689978	      3.29358531	      0.00000000	      0.00000000	      0.00000000
      0.05000000	     -4.78576573	      8.99144646	    -90.76069397	     -0.21756529	      0.95268662	     -0.74502029	      6.06030621	      5.63224466	     21.34949074	    -15.30571505	     -9.58526377	      7.42212735	     16.44944690	     -2.93639629	      7.61586930	     36.37364399	     -6.45741915	      9.91987109	     -8.09862400	      4.64588928	     -1.61802413	     15.52442785	      6.17948599	      3.29820955	      0.00000000	      0.00000000	      0.00000000
      0.06000000	     -4.59593318	      8.79552783	    -91.40180628	     -0.21722548	      0.95169694	     -0.73342636	      5.23323328	      5.26626735	     21.06919245	    -15.58298562	     -9.02159097	      7.52403989	     17.06885062	     -2.40283575	      7.97914355	     35.25154928	     -6.64741566	     10.99517944	     -5.11419104	      6.45195787	     -1.91081018	     15.37941446	      7.17498098	      3.23116860	      0.00000000	      0.00000000	      0.00000000
      0.07000000	     -4.45051215	      8.76316218	    -92.19706942	     -0.21755714	      0.95048676	     -0.72195420	      4.72168724	      5.07108960	     21.04952411	    -16.10776311	     -8.67051775	      7.58518705	     17.61877603	     -1.59169642	      8.26273942	     34.99393690	     -6.77441119	     10.63523885	     -3.96996142	      8.18222997	     -1.78244073	     15.46281985	      9.54123040	      3.07624053	      0.00000000	      0.00000000	      0.00000000
